<svg width="800" height="600" xmlns="http://www.w3.org/2000/svg">
  <rect width="100%" height="100%" fill="#87CEEB"/>
  
  <!-- Ground -->
  <rect x="0" y="400" width="800" height="200" fill="#7CFC00"/>
  <rect x="100" y="400" width="600" height="100" fill="#F4A460" rx="5"/>
  
  <!-- Swings -->
  <line x1="150" y1="150" x2="150" y2="400" stroke="#8B4513" stroke-width="10"/>
  <line x1="250" y1="150" x2="250" y2="400" stroke="#8B4513" stroke-width="10"/>
  <line x1="150" y1="150" x2="250" y2="150" stroke="#8B4513" stroke-width="10"/>
  <line x1="175" y1="150" x2="175" y2="300" stroke="#000" stroke-width="2"/>
  <line x1="225" y1="150" x2="225" y2="300" stroke="#000" stroke-width="2"/>
  <rect x="165" y="300" width="20" height="30" fill="#FF0000"/>
  <rect x="215" y="300" width="20" height="30" fill="#0000FF"/>
  
  <!-- Slide -->
  <rect x="350" y="350" width="100" height="10" fill="#FFA500" stroke="#000" stroke-width="2"/>
  <path d="M450 360 L500 400" stroke="#FFA500" stroke-width="10" stroke-linecap="round"/>
  <rect x="340" y="200" width="10" height="150" fill="#FFA500" stroke="#000" stroke-width="2"/>
  <rect x="450" y="200" width="10" height="150" fill="#FFA500" stroke="#000" stroke-width="2"/>
  <rect x="340" y="200" width="120" height="10" fill="#FFA500" stroke="#000" stroke-width="2"/>
  
  <!-- Seesaw -->
  <rect x="600" y="380" width="100" height="10" fill="#A52A2A" stroke="#000" stroke-width="2" transform="rotate(-20 600 380)"/>
  <rect x="645" y="390" width="10" height="20" fill="#A52A2A" stroke="#000" stroke-width="2"/>
  
  <!-- Characters (simplified) -->
  <circle cx="300" cy="250" r="30" fill="#FFFF00" stroke="#000" stroke-width="2"/> <!-- Big Bird -->
  <circle cx="450" cy="300" r="20" fill="#FF0000" stroke="#000" stroke-width="2"/> <!-- Elmo on slide -->
  <circle cx="600" cy="370" r="20" fill="#0000FF" stroke="#000" stroke-width="2"/> <!-- Cookie Monster on seesaw -->
  <circle cx="700" cy="450" r="25" fill="#008000" stroke="#000" stroke-width="2"/> <!-- Oscar in sandbox -->
  
  <!-- Sandbox -->
  <rect x="650" y="450" width="100" height="50" fill="#F5DEB3" stroke="#8B4513" stroke-width="3"/>
</svg>